<svg width="20" height="20" viewBox="0 0 20 20" fill="none" xmlns="http://www.w3.org/2000/svg">
<path d="M11.4278 11.1111C12.6377 11.141 13.8101 10.6899 14.688 9.85681C15.5659 9.02369 16.0777 7.87649 16.1111 6.66666C16.0777 5.45684 15.5659 4.30964 14.688 3.47652C13.8101 2.6434 12.6377 2.19235 11.4278 2.22222H6.66668C6.51934 2.22222 6.37803 2.28075 6.27384 2.38494C6.16966 2.48913 6.11112 2.63043 6.11112 2.77778V10H5.00001C4.85267 10 4.71136 10.0585 4.60718 10.1627C4.50299 10.2669 4.44446 10.4082 4.44446 10.5556C4.44446 10.7029 4.50299 10.8442 4.60718 10.9484C4.71136 11.0526 4.85267 11.1111 5.00001 11.1111H6.11112V12.2222H5.00001C4.85267 12.2222 4.71136 12.2808 4.60718 12.3849C4.50299 12.4891 4.44446 12.6304 4.44446 12.7778C4.44446 12.9251 4.50299 13.0664 4.60718 13.1706C4.71136 13.2748 4.85267 13.3333 5.00001 13.3333H6.11112V17.2222C6.11112 17.3696 6.16966 17.5109 6.27384 17.6151C6.37803 17.7192 6.51934 17.7778 6.66668 17.7778C6.81402 17.7778 6.95533 17.7192 7.05952 17.6151C7.1637 17.5109 7.22224 17.3696 7.22224 17.2222V13.3333H12.2222C12.3696 13.3333 12.5109 13.2748 12.6151 13.1706C12.7193 13.0664 12.7778 12.9251 12.7778 12.7778C12.7778 12.6304 12.7193 12.4891 12.6151 12.3849C12.5109 12.2808 12.3696 12.2222 12.2222 12.2222H7.22224V11.1111H11.4278ZM7.22224 3.33333H11.4278C12.3427 3.3048 13.2317 3.63926 13.9009 4.26373C14.5702 4.8882 14.9653 5.752 15 6.66666C14.9667 7.58183 14.572 8.4465 13.9025 9.07127C13.2329 9.69605 12.3431 10.03 11.4278 10H7.22224V3.33333Z" fill="black"/>
</svg>
