<svg width="20" height="20" viewBox="0 0 20 20" fill="none" xmlns="http://www.w3.org/2000/svg">
<path d="M18.692 4.78226C18.5599 4.70491 18.4082 4.66491 18.254 4.66677C18.0831 4.66615 17.9155 4.71234 17.7703 4.80008L14.6032 6.72884V5.11115C14.6032 4.63961 14.4109 4.18747 14.0686 3.85402C13.7262 3.52056 13.2619 3.33334 12.7778 3.33334H1.82543C1.34125 3.33334 0.877001 3.5206 0.534619 3.85402C0.192236 4.18743 0 4.63961 0 5.11115V14.8889C0 15.3604 0.192269 15.8126 0.534619 16.146C0.876968 16.4795 1.34125 16.6667 1.82543 16.6667H12.7778C13.2619 16.6667 13.7262 16.4794 14.0686 16.146C14.4109 15.8126 14.6032 15.3604 14.6032 14.8889V13.2712L17.7702 15.2001L17.7703 15.1999C17.9155 15.2877 18.0831 15.3339 18.254 15.3333C18.4083 15.3351 18.5599 15.2951 18.692 15.2178C18.8348 15.1417 18.954 15.0299 19.0374 14.894C19.1208 14.758 19.1656 14.6028 19.1667 14.4444V5.5556C19.1656 5.39718 19.1208 5.24201 19.0374 5.10607C18.954 4.97013 18.8348 4.85837 18.692 4.78226L18.692 4.78226ZM13.6905 14.8889C13.6905 15.1247 13.5944 15.3509 13.4231 15.5175C13.252 15.6841 13.0198 15.7779 12.7777 15.7779H1.82541C1.58332 15.7779 1.35109 15.6841 1.18 15.5175C1.00875 15.3509 0.912613 15.1247 0.912613 14.8889V5.11122C0.912613 4.87545 1.00875 4.64928 1.18 4.48265C1.3511 4.31602 1.58332 4.22224 1.82541 4.22224H12.7777C13.0198 4.22224 13.252 4.31602 13.4231 4.48265C13.5944 4.64929 13.6905 4.87545 13.6905 5.11122V14.8889ZM18.254 14.4445L14.6031 12.2223V7.77791L18.254 5.5557V14.4445Z" fill="black"/>
</svg>
