<svg width="200" height="54" viewBox="0 0 200 54" fill="none" xmlns="http://www.w3.org/2000/svg">
<path d="M79.6519 24.8829C78.4178 24.8829 77.3365 24.622 76.4078 24.1002C75.491 23.5784 74.7857 22.8421 74.292 21.8912C73.7984 20.9288 73.5515 19.804 73.5515 18.5168C73.5515 17.2413 73.7984 16.1281 74.292 15.1773C74.7857 14.2148 75.491 13.4785 76.4078 12.9683C77.3365 12.4465 78.4178 12.1855 79.6519 12.1855C80.4982 12.1855 81.2917 12.3189 82.0322 12.5856C82.7846 12.8407 83.4074 13.2002 83.9011 13.664L83.1606 15.299C82.5964 14.8468 82.0322 14.5221 81.468 14.325C80.9157 14.1162 80.3219 14.0119 79.6872 14.0119C78.4763 14.0119 77.5362 14.4004 76.8662 15.1773C76.2081 15.9542 75.8788 17.0674 75.8788 18.5168C75.8788 19.9779 76.2081 21.1027 76.8662 21.8912C77.5243 22.6682 78.4649 23.0566 79.6872 23.0566C80.3219 23.0566 80.9157 22.9581 81.468 22.7609C82.0322 22.5522 82.5964 22.2217 83.1606 21.7695L83.9011 23.4045C83.4074 23.8683 82.7846 24.2336 82.0322 24.5003C81.2917 24.7554 80.4982 24.8829 79.6519 24.8829Z" fill="#101628"/>
<path d="M92.0623 24.8829C90.852 24.8829 89.7941 24.6279 88.8887 24.1176C87.9957 23.5958 87.3019 22.8595 86.8082 21.9086C86.3265 20.9462 86.0853 19.8156 86.0853 18.5168C86.0853 17.2297 86.3265 16.1107 86.8082 15.1599C87.2905 14.1974 87.9781 13.4611 88.8711 12.9509C89.7765 12.4407 90.8401 12.1855 92.0623 12.1855C93.2851 12.1855 94.343 12.4407 95.236 12.9509C96.1414 13.4611 96.829 14.1974 97.2988 15.1599C97.7811 16.1107 98.0217 17.2297 98.0217 18.5168C98.0217 19.8156 97.7811 20.9462 97.2988 21.9086C96.8171 22.8595 96.1294 23.5958 95.236 24.1176C94.343 24.6279 93.2851 24.8829 92.0623 24.8829ZM92.0623 23.0914C93.226 23.0914 94.1314 22.6972 94.7776 21.9086C95.4242 21.1201 95.7473 19.9895 95.7473 18.5168C95.7473 17.0558 95.4242 15.9368 94.7776 15.1599C94.1314 14.3714 93.226 13.9771 92.0623 13.9771C90.8987 13.9771 89.9938 14.3656 89.3471 15.1425C88.701 15.9194 88.3774 17.0442 88.3774 18.5168C88.3774 19.9895 88.701 21.1201 89.3471 21.9086C89.9938 22.6972 90.8987 23.0914 92.0623 23.0914Z" fill="#101628"/>
<path d="M111.636 12.3418V24.7261H109.943L103.173 16.0467V24.7261H101.057V12.3418H102.749L109.502 21.0039V12.3418H111.636Z" fill="#101628"/>
<path d="M119.321 24.8829C118.357 24.8829 117.452 24.7554 116.606 24.5003C115.771 24.2452 115.06 23.8799 114.472 23.4045L115.248 21.7695C115.86 22.2217 116.494 22.558 117.152 22.7783C117.822 22.987 118.551 23.0914 119.339 23.0914C120.208 23.0914 120.878 22.9407 121.349 22.6392C121.83 22.3377 122.071 21.9144 122.071 21.3694C122.071 20.9056 121.848 20.5519 121.402 20.3084C120.966 20.0533 120.244 19.8156 119.233 19.5953C117.658 19.259 116.512 18.8242 115.795 18.2907C115.078 17.7574 114.719 16.9804 114.719 15.96C114.719 15.2294 114.919 14.5801 115.319 14.0119C115.719 13.4437 116.283 12.9973 117.011 12.6726C117.752 12.3479 118.604 12.1855 119.568 12.1855C120.449 12.1855 121.284 12.3189 122.071 12.5856C122.871 12.8407 123.523 13.2002 124.029 13.664L123.27 15.299C122.154 14.4178 120.92 13.9771 119.568 13.9771C118.757 13.9771 118.116 14.1453 117.646 14.4815C117.176 14.8062 116.941 15.2527 116.941 15.8208C116.941 16.3079 117.147 16.6789 117.558 16.934C117.981 17.1891 118.698 17.4269 119.709 17.6472C120.755 17.8907 121.607 18.1574 122.265 18.4473C122.924 18.7256 123.429 19.0908 123.782 19.5431C124.134 19.9837 124.311 20.5403 124.311 21.2129C124.311 21.955 124.111 22.6044 123.711 23.161C123.311 23.706 122.736 24.1292 121.983 24.4307C121.231 24.7322 120.344 24.8829 119.321 24.8829Z" fill="#101628"/>
<path d="M135.342 21.8214H129.207L127.937 24.7261H125.645L131.323 12.3418H133.174L138.869 24.7261H136.594L135.342 21.8214ZM134.584 20.082L132.275 14.7769L129.965 20.082H134.584Z" fill="#101628"/>
<path d="M140.932 12.3418H143.206V22.8824H149.077V24.7261H140.932V12.3418Z" fill="#101628"/>
<path d="M152.227 14.1855H148.136V12.3418H158.627V14.1855H154.519V24.7261H152.227V14.1855Z" fill="#101628"/>
<path d="M160.903 12.3418H163.178V24.7261H160.903V12.3418Z" fill="#101628"/>
<path d="M177.18 12.3418V24.7261H175.488L168.717 16.0467V24.7261H166.602V12.3418H168.294L175.047 21.0039V12.3418H177.18Z" fill="#101628"/>
<path d="M191.09 18.0298V23.9785C190.514 24.2568 189.82 24.4771 189.009 24.6394C188.198 24.8018 187.369 24.8829 186.523 24.8829C185.23 24.8829 184.108 24.6279 183.156 24.1176C182.204 23.6074 181.475 22.8769 180.969 21.926C180.464 20.9752 180.211 19.8388 180.211 18.5168C180.211 17.2182 180.464 16.0933 180.969 15.1425C181.475 14.1917 182.192 13.4611 183.12 12.9509C184.061 12.4407 185.16 12.1855 186.417 12.1855C187.299 12.1855 188.122 12.3131 188.886 12.5682C189.662 12.8233 190.308 13.1828 190.825 13.6466L190.049 15.2816C189.462 14.8294 188.886 14.5047 188.322 14.3076C187.757 14.1105 187.14 14.0119 186.47 14.0119C185.177 14.0119 184.196 14.3945 183.526 15.1599C182.868 15.9252 182.539 17.0442 182.539 18.5168C182.539 20.0359 182.88 21.1839 183.561 21.9608C184.243 22.7261 185.26 23.1088 186.611 23.1088C187.434 23.1088 188.245 22.9986 189.044 22.7783V19.6474H186.329V18.0298H191.09Z" fill="#101628"/>
<path d="M74.1511 31.7817H79.1584C80.4512 31.7817 81.4562 32.089 82.1734 32.7036C82.9019 33.3182 83.2665 34.1647 83.2665 35.2431C83.2665 36.3215 82.9019 37.1738 82.1734 37.8C81.4448 38.4146 80.4398 38.7218 79.1584 38.7218H75.5969V44.166H74.1511V31.7817ZM79.035 37.539C79.9637 37.539 80.6628 37.3419 81.1331 36.9477C81.6034 36.5534 81.8384 35.9852 81.8384 35.2431C81.8384 34.501 81.6034 33.9386 81.1331 33.5559C80.6628 33.1617 79.9637 32.9645 79.035 32.9645H75.5969V37.539H79.035Z" fill="#101628"/>
<path d="M96.1965 44.166H94.6625L93.111 40.0437C92.9233 39.5335 92.6588 39.1914 92.3176 39.0175C91.9888 38.8436 91.5185 38.7566 90.9071 38.7566H87.7687V44.166H86.3406V31.7817H91.3302C92.6821 31.7817 93.7167 32.0774 94.4333 32.6688C95.1624 33.2602 95.5265 34.1125 95.5265 35.2257C95.5265 36.0374 95.3092 36.7215 94.8741 37.2781C94.451 37.8232 93.8339 38.2116 93.0228 38.4435C93.3874 38.5015 93.699 38.6581 93.9573 38.9131C94.2161 39.1567 94.4333 39.5104 94.6097 39.9742L96.1965 44.166ZM91.2068 37.5738C93.1348 37.5738 94.0983 36.797 94.0983 35.2431C94.0983 34.4778 93.8634 33.9096 93.3931 33.5385C92.9233 33.1558 92.1942 32.9645 91.2068 32.9645H87.7687V37.5738H91.2068Z" fill="#101628"/>
<path d="M104.439 44.3052C103.275 44.3052 102.264 44.0501 101.407 43.5399C100.548 43.0297 99.884 42.2991 99.4142 41.3482C98.9558 40.3858 98.7266 39.261 98.7266 37.9739C98.7266 36.6752 98.9558 35.5504 99.4142 34.5995C99.8726 33.6487 100.531 32.9181 101.389 32.4079C102.247 31.8977 103.264 31.6426 104.439 31.6426C105.614 31.6426 106.631 31.8977 107.489 32.4079C108.347 32.9181 109.006 33.6487 109.464 34.5995C109.922 35.5504 110.152 36.6694 110.152 37.9565C110.152 39.2552 109.916 40.38 109.446 41.3309C108.988 42.2817 108.329 43.018 107.472 43.5399C106.613 44.0501 105.603 44.3052 104.439 44.3052ZM104.439 43.0876C105.767 43.0876 106.802 42.6412 107.542 41.7483C108.283 40.8554 108.653 39.5915 108.653 37.9565C108.653 36.3215 108.283 35.0634 107.542 34.1821C106.813 33.3008 105.779 32.8601 104.439 32.8601C103.099 32.8601 102.059 33.3066 101.318 34.1994C100.578 35.0807 100.208 36.3331 100.208 37.9565C100.208 39.5915 100.578 40.8554 101.318 41.7483C102.059 42.6412 103.099 43.0876 104.439 43.0876Z" fill="#101628"/>
<mask id="mask0_65_22" style="mask-type:alpha" maskUnits="userSpaceOnUse" x="5" y="3" width="59" height="48">
<path d="M20.5619 40.343C20.1673 39.9462 20.17 39.3064 20.568 38.9129L40.7939 18.9132C41.4405 18.2739 42.5409 18.7375 42.5292 19.6443L42.3849 30.8465C42.3814 31.1155 42.2704 31.3721 42.0765 31.5596L27.3764 45.7692C26.9758 46.1564 26.3363 46.1501 25.9435 45.7551L20.5619 40.343Z" fill="#CDD3E2"/>
<path d="M5.81049 25.7489L25.9902 45.7363C26.3885 46.1308 27.033 46.1295 27.4296 45.7332L32.6413 40.5262C33.0379 40.13 33.0365 39.4889 32.6382 39.0943L12.4585 19.107C12.0602 18.7124 11.4157 18.7138 11.0191 19.1101L5.80737 24.317C5.41075 24.7133 5.41214 25.3544 5.81049 25.7489Z" fill="#CDD3E2"/>
<path d="M5.79699 25.6726C5.40469 25.2792 5.40327 24.645 5.79381 24.2499L25.7499 4.05543C26.397 3.40055 27.5159 3.87209 27.4932 4.79013L27.2201 15.8323C27.2137 16.0924 27.1068 16.3402 26.9217 16.524L12.4469 30.8999C12.0482 31.2959 11.4019 31.2944 11.0051 30.8964L5.79699 25.6726Z" fill="#CDD3E2"/>
<path d="M46.5763 50.6608C46.1866 51.0358 45.5699 51.0413 45.1737 50.6731L34.8555 41.0863C34.4271 40.6882 34.4244 40.0132 34.8497 39.6118L40.244 34.5207C40.6331 34.1534 41.242 34.1496 41.6358 34.5121L46.3849 38.8837L51.9737 43.9701C52.4064 44.3639 52.4159 45.039 51.9945 45.4447L46.5763 50.6608Z" fill="#CDD3E2"/>
<path d="M36.0368 10.5309L56.1467 30.4492C56.545 30.8437 57.1894 30.8423 57.5861 30.4461L62.7978 25.2391C63.1944 24.8429 63.193 24.2018 62.7947 23.8072L42.6848 3.88899C42.2865 3.49444 41.642 3.49583 41.2454 3.89209L36.0337 9.09905C35.637 9.49531 35.6384 10.1364 36.0368 10.5309Z" fill="#CDD3E2"/>
<path d="M36.1435 41.0324C35.2553 41.0031 34.8288 39.9349 35.4546 39.3073L56.0965 18.608C56.4924 18.211 57.1367 18.2085 57.5357 18.6023L62.8258 23.8233C63.2248 24.2168 63.2274 24.8573 62.8324 25.2544L47.0944 41.0692C46.895 41.2696 46.6206 41.3782 46.3373 41.3689L36.1435 41.0324Z" fill="#CDD3E2"/>
<path d="M26.0107 19.1976C26.0123 18.9276 26.1222 18.6694 26.3161 18.4804L41.2505 3.91881C41.6497 3.52954 42.2899 3.53344 42.6843 3.92755L47.9012 9.14049C48.2978 9.53679 48.2964 10.1779 47.898 10.5724L27.6847 30.5901C27.0408 31.2277 25.9435 30.7705 25.9487 29.8667L26.0107 19.1976Z" fill="#CDD3E2"/>
</mask>
<g mask="url(#mask0_65_22)">
<ellipse cx="35.0834" cy="29.8184" rx="31.8071" ry="31.6406" fill="url(#paint0_linear_65_22)"/>
</g>
<defs>
<linearGradient id="paint0_linear_65_22" x1="11.6734" y1="-1.82227" x2="50.5893" y2="52.5401" gradientUnits="userSpaceOnUse">
<stop stop-color="#62BB51"/>
<stop offset="1" stop-color="#2E7128"/>
</linearGradient>
</defs>
</svg>
