<?xml version="1.0" encoding="utf-8"?><svg width="20" height="20" fill="none" xmlns="http://www.w3.org/2000/svg" viewBox="0 0 20 20"><path fill-rule="evenodd" clip-rule="evenodd" d="M16.526 1.817a.365.365 0 01-.08.509 15.979 15.979 0 01-9.402 3.056H5.25a3.694 3.694 0 00-3.69 3.7 3.68 3.68 0 001.081 2.615h.001a3.66 3.66 0 002.608 1.085h1.792c3.47.003 6.514 1.387 9.454 3.21a.365.365 0 01-.383.62c-2.896-1.797-5.802-3.098-9.072-3.102H5.25a4.385 4.385 0 01-3.123-1.298 4.409 4.409 0 01-1.294-3.13A4.42 4.42 0 015.25 4.653h1.795c3.237 0 6.375-1.026 8.975-2.917a.362.362 0 01.507.081z" fill="#000"/><path fill-rule="evenodd" clip-rule="evenodd" d="M16.25 3.604c-.301 1.412-.49 3.378-.49 5.562s.189 4.152.49 5.563c.152.71.328 1.26.512 1.623.092.183.177.3.247.366.04.038.064.05.074.054a.243.243 0 00.075-.054c.07-.066.154-.183.247-.366.183-.364.36-.914.511-1.623.302-1.411.491-3.378.491-5.563 0-2.183-.19-4.15-.491-5.562-.151-.709-.328-1.259-.511-1.623a1.376 1.376 0 00-.247-.365.242.242 0 00-.075-.055.243.243 0 00-.074.055 1.37 1.37 0 00-.247.365c-.184.364-.36.914-.511 1.623zm.839-2.044h-.002.002zm-.01 0h-.001.002zm2.088 7.606c0-2.217-.192-4.235-.507-5.708-.157-.733-.348-1.35-.572-1.793a2.066 2.066 0 00-.393-.563.885.885 0 00-.612-.269.885.885 0 00-.611.269 2.07 2.07 0 00-.394.563c-.223.443-.414 1.06-.571 1.793C15.192 4.931 15 6.948 15 9.166s.192 4.236.507 5.709c.157.733.348 1.35.571 1.794.112.22.24.416.393.563.154.147.36.268.612.268a.885.885 0 00.612-.268c.153-.146.282-.343.393-.563.224-.443.415-1.06.572-1.794.315-1.473.507-3.49.507-5.709zm-2.09 7.608h.003-.002zm.01 0h0zM3.626 12.504a.348.348 0 01.393.307l.682 4.79h1.22l-.616-4.311c-.029-.2.1-.387.289-.417a.348.348 0 01.392.307l.677 4.733a.382.382 0 01-.08.293.337.337 0 01-.261.127H4.404a.352.352 0 01-.34-.31l-.727-5.102c-.028-.2.101-.387.29-.417z" fill="#000"/><path fill-rule="evenodd" clip-rule="evenodd" d="M17.575 9.167c0-.962-.78-1.742-1.742-1.742v-.758a2.5 2.5 0 010 5v-.759c.962 0 1.742-.78 1.742-1.741z" fill="#000"/></svg>