<?xml version="1.0" encoding="utf-8"?><svg width="20" height="20" fill="none" xmlns="http://www.w3.org/2000/svg" viewBox="0 0 20 20"><path fill-rule="evenodd" clip-rule="evenodd" d="M1 4.938c0-.311.252-.563.563-.563h16.875c.31 0 .562.252.562.563v13.5c0 .31-.252.562-.563.562H1.563A.562.562 0 011 18.437v-13.5zm1.125.562v12.375h15.75V5.5H2.125z" fill="#000"/><path fill-rule="evenodd" clip-rule="evenodd" d="M1 4.938c0-.311.252-.563.563-.563h16.875c.31 0 .562.252.562.563v3.375a2.813 2.813 0 01-2.813 2.812H3.813A2.813 2.813 0 011 8.312V4.938zm1.125.562v2.813c0 .931.756 1.687 1.688 1.687h12.374c.932 0 1.688-.756 1.688-1.688V5.5H2.125z" fill="#000"/><path fill-rule="evenodd" clip-rule="evenodd" d="M6.625 2.125a.562.562 0 00-.563.563v2.25H4.938v-2.25C4.938 1.754 5.694 1 6.625 1h6.75c.932 0 1.688.755 1.688 1.688v2.25h-1.126v-2.25a.562.562 0 00-.562-.563h-6.75zM10 8.875a.562.562 0 00-.563.563v2.25a.562.562 0 101.126 0v-2.25A.562.562 0 0010 8.874zm-1.688.563a1.687 1.687 0 113.376 0v2.25a1.687 1.687 0 11-3.376 0v-2.25z" fill="#000"/><path fill-rule="evenodd" clip-rule="evenodd" d="M8.875 10h2.25v1.125h-2.25V10z" fill="#000"/></svg>