<?xml version="1.0" encoding="utf-8"?><svg width="20" height="20" fill="none" xmlns="http://www.w3.org/2000/svg" viewBox="0 0 20 20"><path d="M17.826.87H2.174A2.18 2.18 0 000 3.043v13.913a2.18 2.18 0 002.174 2.174h15.652A2.18 2.18 0 0020 16.956V3.043A2.18 2.18 0 0017.826.87zm1.304 16.086c0 .718-.586 1.305-1.304 1.305H2.174A1.308 1.308 0 01.87 16.956V3.043c0-.717.587-1.304 1.304-1.304h15.652c.718 0 1.304.587 1.304 1.304v13.913z" fill="#000"/><path d="M7.826 6.087H6.087V4.348a.436.436 0 00-.435-.435.436.436 0 00-.434.435v1.74h-1.74a.436.436 0 00-.434.434c0 .239.195.435.434.435h1.74v1.739c0 .239.195.435.434.435.24 0 .435-.196.435-.435v-1.74h1.74c.238 0 .434-.195.434-.434a.436.436 0 00-.435-.435zM16.087 6.087H11.74a.436.436 0 00-.434.435c0 .239.195.434.434.434h4.348c.24 0 .435-.195.435-.434a.436.436 0 00-.435-.435zM7.478 11.63c-.174-.174-.456-.174-.609 0l-1.217 1.24-1.217-1.24a.42.42 0 00-.61 0 .42.42 0 000 .609l1.24 1.24-1.24 1.238a.42.42 0 000 .609.43.43 0 00.305.13.43.43 0 00.305-.13l1.217-1.24 1.217 1.24a.43.43 0 00.305.13.43.43 0 00.304-.13.42.42 0 000-.609l-1.217-1.239L7.5 12.24a.44.44 0 00-.022-.609zM16.087 13.913H11.74a.436.436 0 00-.434.435c0 .24.195.435.434.435h4.348c.24 0 .435-.196.435-.435a.436.436 0 00-.435-.435zM16.087 11.305H11.74a.436.436 0 00-.434.434c0 .24.195.435.434.435h4.348c.24 0 .435-.195.435-.435a.436.436 0 00-.435-.434z" fill="#000"/></svg>