<?xml version="1.0" encoding="utf-8"?><svg width="15" height="15" fill="none" xmlns="http://www.w3.org/2000/svg" viewBox="0 0 15 15"><g clip-path="url(#fclip0_2_121)"><path d="M4.963 3.794l-.1.004.003.1.02.585.004.1.1-.003 4.29-.152-6.304 5.983-.073.069.069.072.403.425.07.073.072-.069L9.82 4.998l-.376 4.275-.009.1.1.008.584.052.1.008.008-.1.475-5.41.004-.046-.03-.032-.21-.22-.03-.033-.046.002-5.428.192z" fill="#fff" stroke="#fff" stroke-width=".2"/></g><defs><clipPath id="fclip0_2_121"><path fill="#fff" transform="rotate(-43.506 8.626 3.442)" d="M0 0h9.999v10H0z"/></clipPath></defs></svg>