<?xml version="1.0" encoding="utf-8"?><svg width="20" height="20" fill="none" xmlns="http://www.w3.org/2000/svg" viewBox="0 0 20 20"><path d="M10.09 19.347c-5.117 0-9.257-4.16-9.257-9.257 0-5.098 4.14-9.257 9.257-9.257s9.257 4.16 9.257 9.257c0 5.098-4.16 9.257-9.257 9.257zm0-17.383c-4.485 0-8.107 3.641-8.107 8.126 0 4.466 3.642 8.107 8.107 8.107 4.466 0 8.107-3.641 8.107-8.107 0-4.485-3.641-8.126-8.107-8.126z" fill="#000"/><path d="M10.186 5.165a3.186 3.186 0 00-3.182 3.181c0 .288.23.518.518.518.287 0 .517-.23.517-.518 0-1.188.959-2.146 2.147-2.146 1.188 0 2.146.958 2.146 2.146a2.143 2.143 0 01-2.146 2.147.515.515 0 00-.518.517v1.553c0 .287.23.517.518.517.287 0 .517-.23.517-.518V11.47a3.177 3.177 0 002.664-3.143 3.17 3.17 0 00-3.181-3.162zM10.914 14.651a.728.728 0 11-1.457 0 .728.728 0 011.457 0z" fill="#000"/></svg>