<?xml version="1.0" encoding="utf-8"?><svg width="24" height="24" xmlns="http://www.w3.org/2000/svg" viewBox="0 0 24 24"><path d="M22.146 3.145c-.36-.305-.926-.349-1.51-.114h-.001c-.615.246-17.406 7.448-18.09 7.743-.123.043-1.21.448-1.097 1.35.1.814.972 1.15 1.079 1.19l4.268 1.461c.284.943 1.328 4.421 1.558 5.164.144.463.38 1.072.79 1.197.361.14.72.012.953-.17l2.61-2.42 4.213 3.285.1.06c.286.127.56.19.822.19.202 0 .396-.038.58-.114.632-.259.885-.86.911-.929l3.147-16.357c.192-.873-.075-1.318-.333-1.536zM10.56 15.36L9.12 19.2l-1.44-4.8 11.04-8.16-8.16 9.12z"/></svg>