<?xml version="1.0" encoding="utf-8"?><svg width="20" height="20" fill="none" xmlns="http://www.w3.org/2000/svg" viewBox="0 0 20 20"><path d="M18.692 4.782a.847.847 0 00-.438-.115.93.93 0 00-.484.133L14.603 6.73V5.11c0-.471-.192-.924-.534-1.257a1.85 1.85 0 00-1.291-.52H1.825a1.85 1.85 0 00-1.29.52A1.754 1.754 0 000 5.111v9.778c0 .471.192.924.535 1.257.342.334.806.52 1.29.52h10.953a1.85 1.85 0 001.29-.52c.343-.333.535-.786.535-1.257V13.27l3.167 1.93V15.2a.929.929 0 00.484.133.848.848 0 00.438-.115.903.903 0 00.345-.324.871.871 0 00.13-.45V5.556a.87.87 0 00-.13-.45.902.902 0 00-.345-.324zM13.69 14.89a.877.877 0 01-.267.629.926.926 0 01-.645.26H1.825a.926.926 0 01-.645-.26.877.877 0 01-.267-.63V5.112c0-.236.096-.462.267-.628a.926.926 0 01.645-.26h10.953c.242 0 .474.093.645.26a.877.877 0 01.268.628v9.778zm4.564-.444l-3.65-2.223V7.778l3.65-2.222v8.889z" fill="#000"/></svg>