<?xml version="1.0" encoding="utf-8"?><svg width="24" height="24" fill="none" xmlns="http://www.w3.org/2000/svg" viewBox="0 0 24 24"><path d="M23.461 17.511a2.992 2.992 0 01-2.513 2.4c-1.975.3-5.267.66-8.978.66-3.65 0-6.943-.36-8.977-.66a2.992 2.992 0 01-2.514-2.4c-.24-1.38-.479-3.42-.479-5.94 0-2.52.24-4.56.479-5.94a2.992 2.992 0 012.514-2.4c1.975-.3 5.266-.66 8.977-.66 3.71 0 6.943.36 8.978.66a2.992 2.992 0 012.513 2.4c.24 1.38.539 3.42.539 5.94-.06 2.52-.3 4.56-.539 5.94z" fill="#CDD2DD"/><path d="M9.429 16.285V7.714L17.143 12l-7.714 4.285z" fill="#fff"/></svg>