<svg width="15" height="15" viewBox="0 0 15 15" fill="none" xmlns="http://www.w3.org/2000/svg">
<g clip-path="url(#clip0_2_121)">
<path d="M4.96255 3.79425L4.86262 3.79779L4.86616 3.89773L4.88691 4.48329L4.89046 4.58323L4.99039 4.57969L9.27945 4.42766L2.97566 10.411L2.90313 10.4798L2.97197 10.5523L3.37534 10.9773L3.44419 11.0498L3.51672 10.981L9.82051 4.9977L9.44509 9.273L9.43634 9.37262L9.53595 9.38137L10.1196 9.43262L10.2193 9.44137L10.228 9.34175L10.7032 3.93038L10.7071 3.88548L10.6761 3.85279L10.4674 3.63291L10.4364 3.60021L10.3913 3.60181L4.96255 3.79425Z" fill="white" stroke="white" stroke-width="0.2"/>
</g>
<defs>
<clipPath id="clip0_2_121">
<rect width="9.99947" height="10" fill="white" transform="translate(0 6.88379) rotate(-43.5058)"/>
</clipPath>
</defs>
</svg>
