<svg width="16" height="16" viewBox="0 0 16 16" fill="none" xmlns="http://www.w3.org/2000/svg">
<path d="M12.9686 1.83166L2.20699 5.16605C2.00764 5.21897 1.83071 5.33483 1.70252 5.49641C1.57433 5.65799 1.50174 5.85664 1.49555 6.0628C1.48936 6.26896 1.5499 6.4716 1.66817 6.64058C1.78643 6.80956 1.9561 6.93583 2.15191 7.00061L7.03276 8.63603C7.05055 8.64279 7.06683 8.65301 7.08065 8.6661C7.09446 8.67919 7.10555 8.69489 7.11326 8.71229L8.90969 13.3728C8.98238 13.5601 9.11069 13.7205 9.27734 13.8326C9.44398 13.9447 9.64097 14.0031 9.84179 13.9999H9.86722C10.0714 13.9992 10.2702 13.9342 10.4353 13.814C10.6004 13.6938 10.7233 13.5246 10.7866 13.3305L14.21 3.05187C14.2637 2.8873 14.2715 2.71122 14.2327 2.54253C14.1939 2.37384 14.1099 2.2189 13.9897 2.09434C13.8611 1.95937 13.6973 1.86319 13.5168 1.81675C13.3362 1.77031 13.1463 1.77548 12.9686 1.83166Z" fill="#46A44E"/>
</svg>
