<?xml version="1.0" encoding="utf-8"?><svg viewBox="0 0 24 24" xmlns="http://www.w3.org/2000/svg" xmlns:xlink="http://www.w3.org/1999/xlink"><style>:root>svg{display:none}:root>svg:target{display:block}</style><svg fill="none" viewBox="0 0 20 20" id="announcement" xmlns="http://www.w3.org/2000/svg"><path fill-rule="evenodd" clip-rule="evenodd" d="M16.526 1.817a.365.365 0 01-.08.509 15.979 15.979 0 01-9.402 3.056H5.25a3.694 3.694 0 00-3.69 3.7 3.68 3.68 0 001.081 2.615h.001a3.66 3.66 0 002.608 1.085h1.792c3.47.003 6.514 1.387 9.454 3.21a.365.365 0 01-.383.62c-2.896-1.797-5.802-3.098-9.072-3.102H5.25a4.385 4.385 0 01-3.123-1.298 4.409 4.409 0 01-1.294-3.13A4.42 4.42 0 015.25 4.653h1.795c3.237 0 6.375-1.026 8.975-2.917a.362.362 0 01.507.081z" fill="#000"/><path fill-rule="evenodd" clip-rule="evenodd" d="M16.25 3.604c-.301 1.412-.49 3.378-.49 5.562s.189 4.152.49 5.563c.152.71.328 1.26.512 1.623.092.183.177.3.247.366.04.038.064.05.074.054a.243.243 0 00.075-.054c.07-.066.154-.183.247-.366.183-.364.36-.914.511-1.623.302-1.411.491-3.378.491-5.563 0-2.183-.19-4.15-.491-5.562-.151-.709-.328-1.259-.511-1.623a1.376 1.376 0 00-.247-.365.242.242 0 00-.075-.055.243.243 0 00-.074.055 1.37 1.37 0 00-.247.365c-.184.364-.36.914-.511 1.623zm.839-2.044h-.002.002zm-.01 0h-.001.002zm2.088 7.606c0-2.217-.192-4.235-.507-5.708-.157-.733-.348-1.35-.572-1.793a2.066 2.066 0 00-.393-.563.885.885 0 00-.612-.269.885.885 0 00-.611.269 2.07 2.07 0 00-.394.563c-.223.443-.414 1.06-.571 1.793C15.192 4.931 15 6.948 15 9.166s.192 4.236.507 5.709c.157.733.348 1.35.571 1.794.112.22.24.416.393.563.154.147.36.268.612.268a.885.885 0 00.612-.268c.153-.146.282-.343.393-.563.224-.443.415-1.06.572-1.794.315-1.473.507-3.49.507-5.709zm-2.09 7.608h.003-.002zm.01 0h0zM3.626 12.504a.348.348 0 01.393.307l.682 4.79h1.22l-.616-4.311c-.029-.2.1-.387.289-.417a.348.348 0 01.392.307l.677 4.733a.382.382 0 01-.08.293.337.337 0 01-.261.127H4.404a.352.352 0 01-.34-.31l-.727-5.102c-.028-.2.101-.387.29-.417z" fill="#000"/><path fill-rule="evenodd" clip-rule="evenodd" d="M17.575 9.167c0-.962-.78-1.742-1.742-1.742v-.758a2.5 2.5 0 010 5v-.759c.962 0 1.742-.78 1.742-1.741z" fill="#000"/></svg><svg fill="none" viewBox="0 0 20 20" id="bag" xmlns="http://www.w3.org/2000/svg"><path fill-rule="evenodd" clip-rule="evenodd" d="M1 4.938c0-.311.252-.563.563-.563h16.875c.31 0 .562.252.562.563v13.5c0 .31-.252.562-.563.562H1.563A.562.562 0 011 18.437v-13.5zm1.125.562v12.375h15.75V5.5H2.125z" fill="#000"/><path fill-rule="evenodd" clip-rule="evenodd" d="M1 4.938c0-.311.252-.563.563-.563h16.875c.31 0 .562.252.562.563v3.375a2.813 2.813 0 01-2.813 2.812H3.813A2.813 2.813 0 011 8.312V4.938zm1.125.562v2.813c0 .931.756 1.687 1.688 1.687h12.374c.932 0 1.688-.756 1.688-1.688V5.5H2.125z" fill="#000"/><path fill-rule="evenodd" clip-rule="evenodd" d="M6.625 2.125a.562.562 0 00-.563.563v2.25H4.938v-2.25C4.938 1.754 5.694 1 6.625 1h6.75c.932 0 1.688.755 1.688 1.688v2.25h-1.126v-2.25a.562.562 0 00-.562-.563h-6.75zM10 8.875a.562.562 0 00-.563.563v2.25a.562.562 0 101.126 0v-2.25A.562.562 0 0010 8.874zm-1.688.563a1.687 1.687 0 113.376 0v2.25a1.687 1.687 0 11-3.376 0v-2.25z" fill="#000"/><path fill-rule="evenodd" clip-rule="evenodd" d="M8.875 10h2.25v1.125h-2.25V10z" fill="#000"/></svg><svg fill="none" viewBox="0 0 20 20" id="calculator" xmlns="http://www.w3.org/2000/svg"><path d="M17.826.87H2.174A2.18 2.18 0 000 3.043v13.913a2.18 2.18 0 002.174 2.174h15.652A2.18 2.18 0 0020 16.956V3.043A2.18 2.18 0 0017.826.87zm1.304 16.086c0 .718-.586 1.305-1.304 1.305H2.174A1.308 1.308 0 01.87 16.956V3.043c0-.717.587-1.304 1.304-1.304h15.652c.718 0 1.304.587 1.304 1.304v13.913z" fill="#000"/><path d="M7.826 6.087H6.087V4.348a.436.436 0 00-.435-.435.436.436 0 00-.434.435v1.74h-1.74a.436.436 0 00-.434.434c0 .239.195.435.434.435h1.74v1.739c0 .239.195.435.434.435.24 0 .435-.196.435-.435v-1.74h1.74c.238 0 .434-.195.434-.434a.436.436 0 00-.435-.435zM16.087 6.087H11.74a.436.436 0 00-.434.435c0 .239.195.434.434.434h4.348c.24 0 .435-.195.435-.434a.436.436 0 00-.435-.435zM7.478 11.63c-.174-.174-.456-.174-.609 0l-1.217 1.24-1.217-1.24a.42.42 0 00-.61 0 .42.42 0 000 .609l1.24 1.24-1.24 1.238a.42.42 0 000 .609.43.43 0 00.305.13.43.43 0 00.305-.13l1.217-1.24 1.217 1.24a.43.43 0 00.305.13.43.43 0 00.304-.13.42.42 0 000-.609l-1.217-1.239L7.5 12.24a.44.44 0 00-.022-.609zM16.087 13.913H11.74a.436.436 0 00-.434.435c0 .24.195.435.434.435h4.348c.24 0 .435-.196.435-.435a.436.436 0 00-.435-.435zM16.087 11.305H11.74a.436.436 0 00-.434.434c0 .24.195.435.434.435h4.348c.24 0 .435-.195.435-.435a.436.436 0 00-.435-.434z" fill="#000"/></svg><svg fill="none" viewBox="0 0 20 20" id="danger" xmlns="http://www.w3.org/2000/svg"><path fill-rule="evenodd" clip-rule="evenodd" d="M10 2.125a7.875 7.875 0 100 15.75 7.875 7.875 0 000-15.75zM1 10a9 9 0 1118 0 9 9 0 01-18 0z" fill="#000"/><path fill-rule="evenodd" clip-rule="evenodd" d="M9.438 15.625V14.5h1.124v1.125H9.438zM10.563 4.375v9H9.437v-9h1.126z" fill="#000"/></svg><svg fill="none" viewBox="0 0 20 20" id="menu" xmlns="http://www.w3.org/2000/svg"><path d="M1.667 9.167h16.666v1.666H1.667V9.167zm0-5h16.666v1.666H1.667V4.167zm0 10h16.666v1.666H1.667v-1.666z" fill="#000"/></svg><svg fill="none" viewBox="0 0 15 15" id="next" xmlns="http://www.w3.org/2000/svg"><g clip-path="url(#fclip0_2_121)"><path d="M4.963 3.794l-.1.004.003.1.02.585.004.1.1-.003 4.29-.152-6.304 5.983-.073.069.069.072.403.425.07.073.072-.069L9.82 4.998l-.376 4.275-.009.1.1.008.584.052.1.008.008-.1.475-5.41.004-.046-.03-.032-.21-.22-.03-.033-.046.002-5.428.192z" fill="#fff" stroke="#fff" stroke-width=".2"/></g><defs><clipPath id="fclip0_2_121"><path fill="#fff" transform="rotate(-43.506 8.626 3.442)" d="M0 0h9.999v10H0z"/></clipPath></defs></svg><svg fill="none" viewBox="0 0 20 20" id="question" xmlns="http://www.w3.org/2000/svg"><path d="M10.09 19.347c-5.117 0-9.257-4.16-9.257-9.257 0-5.098 4.14-9.257 9.257-9.257s9.257 4.16 9.257 9.257c0 5.098-4.16 9.257-9.257 9.257zm0-17.383c-4.485 0-8.107 3.641-8.107 8.126 0 4.466 3.642 8.107 8.107 8.107 4.466 0 8.107-3.641 8.107-8.107 0-4.485-3.641-8.126-8.107-8.126z" fill="#000"/><path d="M10.186 5.165a3.186 3.186 0 00-3.182 3.181c0 .288.23.518.518.518.287 0 .517-.23.517-.518 0-1.188.959-2.146 2.147-2.146 1.188 0 2.146.958 2.146 2.146a2.143 2.143 0 01-2.146 2.147.515.515 0 00-.518.517v1.553c0 .287.23.517.518.517.287 0 .517-.23.517-.518V11.47a3.177 3.177 0 002.664-3.143 3.17 3.17 0 00-3.181-3.162zM10.914 14.651a.728.728 0 11-1.457 0 .728.728 0 011.457 0z" fill="#000"/></svg><svg fill="none" viewBox="0 0 20 20" id="ruble" xmlns="http://www.w3.org/2000/svg"><path d="M11.428 11.111a4.572 4.572 0 004.683-4.444 4.572 4.572 0 00-4.683-4.445H6.667a.556.556 0 00-.556.556V10H5a.555.555 0 100 1.111h1.111v1.111H5a.556.556 0 000 1.111h1.111v3.89a.556.556 0 101.111 0v-3.89h5a.556.556 0 100-1.11h-5V11.11h4.206zM7.222 3.333h4.206A3.467 3.467 0 0115 6.667 3.461 3.461 0 0111.428 10H7.222V3.333z" fill="#000"/></svg><svg fill="none" viewBox="0 0 16 16" id="send" xmlns="http://www.w3.org/2000/svg"><path d="M12.969 1.832L2.207 5.166a.958.958 0 00-.055 1.835l4.88 1.635a.144.144 0 01.081.076l1.797 4.66a.983.983 0 00.932.628h.025a.97.97 0 00.92-.67L14.21 3.053a.953.953 0 00-.22-.958.996.996 0 00-1.021-.262z" fill="#46A44E"/></svg><svg viewBox="0 0 24 24" id="telegram" xmlns="http://www.w3.org/2000/svg"><path d="M22.146 3.145c-.36-.305-.926-.349-1.51-.114h-.001c-.615.246-17.406 7.448-18.09 7.743-.123.043-1.21.448-1.097 1.35.1.814.972 1.15 1.079 1.19l4.268 1.461c.284.943 1.328 4.421 1.558 5.164.144.463.38 1.072.79 1.197.361.14.72.012.953-.17l2.61-2.42 4.213 3.285.1.06c.286.127.56.19.822.19.202 0 .396-.038.58-.114.632-.259.885-.86.911-.929l3.147-16.357c.192-.873-.075-1.318-.333-1.536zM10.56 15.36L9.12 19.2l-1.44-4.8 11.04-8.16-8.16 9.12z"/></svg><svg fill="none" viewBox="0 0 20 20" id="video" xmlns="http://www.w3.org/2000/svg"><path d="M18.692 4.782a.847.847 0 00-.438-.115.93.93 0 00-.484.133L14.603 6.73V5.11c0-.471-.192-.924-.534-1.257a1.85 1.85 0 00-1.291-.52H1.825a1.85 1.85 0 00-1.29.52A1.754 1.754 0 000 5.111v9.778c0 .471.192.924.535 1.257.342.334.806.52 1.29.52h10.953a1.85 1.85 0 001.29-.52c.343-.333.535-.786.535-1.257V13.27l3.167 1.93V15.2a.929.929 0 00.484.133.848.848 0 00.438-.115.903.903 0 00.345-.324.871.871 0 00.13-.45V5.556a.87.87 0 00-.13-.45.902.902 0 00-.345-.324zM13.69 14.89a.877.877 0 01-.267.629.926.926 0 01-.645.26H1.825a.926.926 0 01-.645-.26.877.877 0 01-.267-.63V5.112c0-.236.096-.462.267-.628a.926.926 0 01.645-.26h10.953c.242 0 .474.093.645.26a.877.877 0 01.268.628v9.778zm4.564-.444l-3.65-2.223V7.778l3.65-2.222v8.889z" fill="#000"/></svg><svg fill="none" viewBox="0 0 24 24" id="vk" xmlns="http://www.w3.org/2000/svg"><g clip-path="url(#lclip0_2_862)"><path d="M19.915 13.028c-.388-.49-.277-.708 0-1.146.005-.005 3.208-4.431 3.538-5.932l.002-.001c.164-.547 0-.949-.793-.949h-2.624c-.668 0-.976.345-1.141.731 0 0-1.336 3.198-3.226 5.271-.61.599-.892.791-1.225.791-.164 0-.419-.192-.419-.739V5.949c0-.656-.187-.949-.74-.949H9.161c-.419 0-.668.306-.668.591 0 .622.945.765 1.043 2.515v3.797c0 .832-.151.985-.486.985-.892 0-3.057-3.211-4.34-6.886-.259-.713-.512-1.001-1.185-1.001H.9c-.749 0-.9.345-.9.731 0 .682.892 4.073 4.148 8.553C6.318 17.343 9.374 19 12.154 19c1.671 0 1.875-.368 1.875-1.001 0-2.922-.151-3.198.686-3.198.388 0 1.056.192 2.616 1.667C19.114 18.217 19.407 19 20.405 19h2.624c.748 0 1.127-.368.909-1.094-.499-1.527-3.871-4.668-4.023-4.878z" fill="#CDD2DD"/></g><defs><clipPath id="lclip0_2_862"><path fill="#fff" d="M0 0h24v24H0z"/></clipPath></defs></svg><svg viewBox="0 0 24 24" id="whatsapp" xmlns="http://www.w3.org/2000/svg"><path d="M12 .96C5.913.96.96 5.913.96 12c0 1.9.491 3.77 1.422 5.42L.978 22.43a.48.48 0 00.577.596l5.23-1.296A11.047 11.047 0 0012 23.04c6.087 0 11.04-4.953 11.04-11.04C23.04 5.913 18.087.96 12 .96zm5.554 14.936c-.236.653-1.37 1.25-1.914 1.33-.488.072-1.107.102-1.785-.11-.412-.13-.94-.302-1.616-.59-2.843-1.213-4.7-4.04-4.842-4.226-.141-.187-1.157-1.518-1.157-2.895s.732-2.054.992-2.335c.26-.28.567-.35.756-.35.19 0 .378.002.544.01.174.009.408-.066.637.48.237.561.804 1.938.874 2.079.07.14.118.304.024.49-.094.187-.142.304-.284.467-.142.164-.297.365-.425.491-.142.14-.29.291-.124.571.165.28.734 1.197 1.577 1.939 1.082.953 1.995 1.249 2.279 1.39.283.14.448.116.614-.071.165-.187.708-.817.897-1.097.188-.28.377-.234.638-.14.26.093 1.653.77 1.936.91.284.14.473.21.544.327.07.116.07.676-.165 1.33z"/></svg><svg fill="none" viewBox="0 0 24 24" id="youtube" xmlns="http://www.w3.org/2000/svg"><path d="M23.461 17.511a2.992 2.992 0 01-2.513 2.4c-1.975.3-5.267.66-8.978.66-3.65 0-6.943-.36-8.977-.66a2.992 2.992 0 01-2.514-2.4c-.24-1.38-.479-3.42-.479-5.94 0-2.52.24-4.56.479-5.94a2.992 2.992 0 012.514-2.4c1.975-.3 5.266-.66 8.977-.66 3.71 0 6.943.36 8.978.66a2.992 2.992 0 012.513 2.4c.24 1.38.539 3.42.539 5.94-.06 2.52-.3 4.56-.539 5.94z" fill="#CDD2DD"/><path d="M9.429 16.285V7.714L17.143 12l-7.714 4.285z" fill="#fff"/></svg></svg>